# File created by Blade
# Date/Time:  Thu Jan 22 19:01:23 2015
#---------------------------------------------------------
:version 1.10
:name HOM
:units
  mass 1.0
  length 1.000000
  angle deg
:documentation
     Acclaim Skeleton File
:root
   axis xyz
   order TX TY TZ RX RY RZ
   position 0.000000 0.000000 0.000000
   orientation 0 0 0
:bonedata
   begin
      id 1
      name RightUpLeg_dum
      direction -1.000000 0.000000 0.000000
      length 4.478084
      axis 0.0 0.0 0.0 xyz
   end
   begin
      id 2
      name LeftUpLeg_dum
      direction 1.000000 0.000000 0.000000
      length 4.478084
      axis 0.0 0.0 0.0 xyz
   end
   begin
      id 3
      name Spine_dum
      direction 0.000000 1.000000 0.000000
      length 6.068208
      axis 0.0 0.0 0.0 xyz
   end
   begin
      id 4
      name RightUpLeg
      direction 0.000000 -1.000000 0.000000
      length 16.405774
      axis 0.0 0.0 0.0 xyz
      dof rx ry rz
   end
   begin
      id 5
      name RightLeg
      direction 0.000000 -1.000000 0.000000
      length 14.644143
      axis 0.0 0.0 0.0 xyz
      dof rx ry rz
   end
   begin
      id 6
      name RightFoot
      direction 0.000000 -0.258819 0.965926
      length 5.806150
      axis 15.0 0.0 0.0 xyz
      dof rx ry rz
   end
   begin
      id 7
      name RightToeBase
      direction 0.000000 0.000000 1.000000
      length 2.952750
      axis 0.0 0.0 0.0 xyz
      dof rx ry rz
   end
   begin
      id 8
      name LeftUpLeg
      direction 0.000000 -1.000000 0.000000
      length 16.405774
      axis 0.0 0.0 0.0 xyz
      dof rx ry rz
   end
   begin
      id 9
      name LeftLeg
      direction 0.000000 -1.000000 0.000000
      length 14.644143
      axis 0.0 0.0 0.0 xyz
      dof rx ry rz
   end
   begin
      id 10
      name LeftFoot
      direction 0.000000 -0.258819 0.965926
      length 5.806150
      axis 15.0 0.0 0.0 xyz
      dof rx ry rz
   end
   begin
      id 11
      name LeftToeBase
      direction 0.000000 0.000000 1.000000
      length 2.952750
      axis 0.0 0.0 0.0 xyz
      dof rx ry rz
   end
   begin
      id 12
      name Spine
      direction 0.000000 1.000000 0.000000
      length 0.000000
      axis 0.0 0.0 0.0 xyz
      dof rx ry rz
   end
   begin
      id 13
      name Spine_dum1
      direction 0.000000 1.000000 0.000000
      length 10.013923
      axis 0.0 0.0 0.0 xyz
   end
   begin
      id 14
      name Spine_dum2
      direction 0.000000 1.000000 0.000000
      length 10.013923
      axis 0.0 0.0 0.0 xyz
   end
   begin
      id 15
      name Spine_dum3
      direction 0.000000 1.000000 0.000000
      length 15.777476
      axis 0.0 0.0 0.0 xyz
   end
   begin
      id 16
      name RightShoulder
      direction -1.000000 0.000000 0.000000
      length 7.190220
      axis 0.0 0.0 90.0 xyz
      dof rx ry rz
   end
   begin
      id 17
      name RightArm
      direction -1.000000 0.000000 0.000000
      length 10.177469
      axis 0.0 0.0 90.0 xyz
      dof rx ry rz
   end
   begin
      id 18
      name RightForeArm
      direction -1.000000 0.000000 0.000000
      length 8.392114
      axis 0.0 0.0 90.0 xyz
      dof ry rz rx
   end
   begin
      id 19
      name RightHand
      direction -1.000000 0.000000 0.000000
      length 0.000000
      axis 0.0 0.0 90.0 xyz
      dof rx ry rz
   end
   begin
      id 20
      name RightHand_dum1
      direction -1.000000 0.000000 0.000000
      length 3.937000
      axis 0.0 0.0 90.0 xyz
   end
   begin
      id 21
      name RightHand_dum2
      direction 0.000000 0.000000 0.000000
      length 0.000000
      axis 0.0 0.0 90.0 xyz
   end
   begin
      id 22
      name RightHandThumb1
      direction 0.000000 0.000000 1.000000
      length 3.937000
      axis 0.0 0.0 90.0 xyz
      dof rx rz ry
   end
   begin
      id 23
      name LeftShoulder
      direction 1.000000 0.000000 0.000000
      length 7.190220
      axis 0.0 0.0 -90.0 xyz
      dof rx ry rz
   end
   begin
      id 24
      name LeftArm
      direction 1.000000 0.000000 0.000000
      length 10.177469
      axis 0.0 0.0 -90.0 xyz
      dof rx ry rz
   end
   begin
      id 25
      name LeftForeArm
      direction 1.000000 0.000000 0.000000
      length 8.392114
      axis 0.0 0.0 -90.0 xyz
      dof ry rz rx
   end
   begin
      id 26
      name LeftHand
      direction 1.000000 0.000000 0.000000
      length 0.000000
      axis 0.0 0.0 -90.0 xyz
      dof rx ry rz
   end
   begin
      id 27
      name LeftHand_dum1
      direction 1.000000 0.000000 0.000000
      length 3.937000
      axis 0.0 0.0 -90.0 xyz
   end
   begin
      id 28
      name LeftHand_dum2
      direction 0.000000 0.000000 0.000000
      length 0.000000
      axis 0.0 0.0 -90.0 xyz
   end
   begin
      id 29
      name LeftHandThumb1
      direction 0.000000 0.000000 1.000000
      length 3.937000
      axis 0.0 0.0 -90.0 xyz
      dof rx rz ry
   end
   begin
      id 30
      name Head
      direction 0.000000 1.000000 0.000000
      length 4.527550
      axis 0.0 0.0 0.0 xyz
      dof rx ry rz
   end
:hierarchy
   begin
      root RightUpLeg_dum LeftUpLeg_dum Spine_dum
      RightUpLeg_dum RightUpLeg
      LeftUpLeg_dum LeftUpLeg
      Spine_dum Spine
      RightUpLeg RightLeg
      RightLeg RightFoot
      RightFoot RightToeBase
      LeftUpLeg LeftLeg
      LeftLeg LeftFoot
      LeftFoot LeftToeBase
      Spine Spine_dum1 Spine_dum2 Spine_dum3
      Spine_dum1 RightShoulder
      Spine_dum2 LeftShoulder
      Spine_dum3 Head
      RightShoulder RightArm
      RightArm RightForeArm
      RightForeArm RightHand
      RightHand RightHand_dum1 RightHand_dum2
      RightHand_dum2 RightHandThumb1
      LeftShoulder LeftArm
      LeftArm LeftForeArm
      LeftForeArm LeftHand
      LeftHand LeftHand_dum1 LeftHand_dum2
      LeftHand_dum2 LeftHandThumb1
   end

# File created by Blade
# Date/Time:  Thu Jan 22 19:01:15 2015
# Frame Rate: 120.000 fps
#------------------------------------------------------
:FULLY-SPECIFIED
:DEGREES
1
root -2.938456 33.167043 -0.408794 7.570295 -1.925985 2.709296
RightUpLeg -0.951751 -7.224637 -1.890046
RightLeg -0.589011 -0.000000 0.000000
RightFoot -11.281341 -2.903165 3.648545
RightToeBase 5.670028 -0.000000 -0.000000
LeftUpLeg -1.175380 4.803815 0.973348
LeftLeg 1.204663 -0.000000 -0.000000
LeftFoot -10.366867 1.460443 -10.125123
LeftToeBase 7.498524 -0.000000 -0.000000
Spine -8.572319 -1.978895 -1.779917
RightShoulder -19.634808 -18.199305 -25.507711
RightArm 20.812473 29.239853 38.397196
RightForeArm -9.029572 -0.000000 9.997090
RightHand 6.348988 -0.000000 11.584769
RightHandThumb1 -24.326973 -0.000000 -32.862282
LeftShoulder -25.308512 8.364317 28.821813
LeftArm 15.948488 -27.999887 -35.317397
LeftForeArm 29.845127 -0.000000 2.226930
LeftHand -6.682168 -0.000000 -9.424711
LeftHandThumb1 -26.253704 0.000000 33.147579
Head -2.089512 3.699954 -0.112055
2
root -2.935796 33.167808 -0.411028 7.569674 -1.932555 2.709448
RightUpLeg -0.953064 -7.229189 -1.895315
RightLeg -0.593091 -0.000000 0.000000
RightFoot -11.269163 -2.884593 3.664394
RightToeBase 6.001120 -0.000000 -0.000000
LeftUpLeg -1.170813 4.808251 0.969785
LeftLeg 1.190727 -0.000000 -0.000000
LeftFoot -10.348984 1.449157 -10.145350
LeftToeBase 7.497350 -0.000000 -0.000000
Spine -8.564778 -1.963459 -1.779405
RightShoulder -19.643029 -18.211502 -25.509768
RightArm 20.813383 29.279263 38.422843
RightForeArm -9.023427 -0.000000 10.023197
RightHand 6.341462 -0.000000 11.670559
RightHandThumb1 -24.326973 -0.000000 -32.862282
LeftShoulder -25.306385 8.370861 28.819633
LeftArm 15.949696 -28.014859 -35.316291
LeftForeArm 29.875600 -0.000000 2.237513
LeftHand -6.659841 -0.000000 -9.415596
LeftHandThumb1 -26.253704 0.000000 33.147579
Head -2.086083 3.686787 -0.115308
3
root -2.933555 33.168372 -0.413063 7.570991 -1.932667 2.709368
RightUpLeg -0.956148 -7.222906 -1.897440
RightLeg -0.599408 -0.000000 0.000000
RightFoot -11.262808 -2.897454 3.684287
RightToeBase 5.654674 -0.000000 -0.000000
LeftUpLeg -1.170006 4.805428 0.971667
LeftLeg 1.193780 -0.000000 -0.000000
LeftFoot -10.345277 1.425519 -10.098810
LeftToeBase 7.479460 -0.000000 -0.000000
Spine -8.561160 -1.962555 -1.776421
RightShoulder -19.647025 -18.210533 -25.506815
RightArm 20.809932 29.277578 38.411078
RightForeArm -8.997800 -0.000000 10.016633
RightHand 6.356516 -0.000000 11.698485
RightHandThumb1 -24.326973 -0.000000 -32.862282
LeftShoulder -25.313889 8.384933 28.820608
LeftArm 15.953832 -28.003160 -35.316602
LeftForeArm 29.866509 -0.000000 2.249049
LeftHand -6.669358 -0.000000 -9.397217
LeftHandThumb1 -26.253704 0.000000 33.147579
Head -2.079233 3.685438 -0.116740
4
root -2.930744 33.168564 -0.415074 7.573880 -1.936774 2.710047
RightUpLeg -0.956681 -7.235402 -1.902231
RightLeg -0.614952 -0.000000 0.000000
RightFoot -11.248864 -2.886542 3.658450
RightToeBase 5.687969 -0.000000 -0.000000
LeftUpLeg -1.169246 4.829167 0.960798
LeftLeg 1.165182 -0.000000 -0.000000
LeftFoot -10.326547 1.429377 -10.121018
LeftToeBase 7.481250 -0.000000 -0.000000
Spine -8.559768 -1.957689 -1.768822
RightShoulder -19.651983 -18.218885 -25.511946
RightArm 20.815751 29.305796 38.420497
RightForeArm -9.036518 -0.000000 10.019052
RightHand 6.335153 -0.000000 11.705846
RightHandThumb1 -24.326973 -0.000000 -32.862282
LeftShoulder -25.314014 8.380856 28.824686
LeftArm 15.930197 -27.976256 -35.306563
LeftForeArm 29.871929 0.000000 2.273227
LeftHand -6.680843 -0.000000 -9.365573
LeftHandThumb1 -26.253704 0.000000 33.147579
Head -2.080825 3.694245 -0.127412
